# xmcd
#
# Track frame offsets:
#	150
#	11283
#	25288
#	35101
#	44669
#	55310
#	66592
#	75043
#	86847
#	96228
#	106797
#	117993
#	126809
#	134507
#	145078
#	154849
#	159015
#	164743
#	176175
#	179263
#	186644
#	192393
#	198803
#	204686
#	213843
#	226158
#	231759
#	238787
#	243149
#	254683
#	257175
#	263602
#	267559
#	275559
#	284374
#	295683
#	307516
#	319225
#	331699
#
# Disc length: 4599 seconds
# Revision: 1
# Processed by: cddbd v1.5.2PL0 Copyright (c) Steve Scherf et al.
# Submitted via: dBpowerAMP V12.0
#
DISCID=3e11f527
DTITLE=Merle Travis - The Merle Travis Guitar and Walkin the Strings... Plus
DYEAR=2009
DGENRE=Country
TTITLE0=Blue Smoke
TTITLE1=Black Diamond Blues
TTITLE2=On a Bicycle Built for Two
TTITLE3=Saturday Night Shuffle
TTITLE4=Bugle Call Rag
TTITLE5=Tuck Me to Sleep in My Old 'Tucky Home
TTITLE6=Walkin' the Strings
TTITLE7=The Memphis Blues
TTITLE8=The Sheik of Araby
TTITLE9=Blue Bell
TTITLE10=The Waltz You Saved for Me
TTITLE11=Rockabye Rag
TTITLE12=Walkin' the Strings
TTITLE13=Little David Play on Your Harp
TTITLE14=Saturday Night Shuffle
TTITLE15=Thumbing the Bass
TTITLE16=Cane Break Blues
TTITLE17=Darby's Ram
TTITLE18=Everly Rag
TTITLE19=Rose Time
TTITLE20=Old Aunt Dinah
TTITLE21=My Old Kentucky Home
TTITLE22=Pigmeat Stomp
TTITLE23=Blue Smoke
TTITLE24=Dry Bread
TTITLE25=Louisville Clog
TTITLE26=On a Bicycle Built for Two
TTITLE27=Green Bay Polka
TTITLE28=Jordan Am a Hard Road to Travel
TTITLE29=Travis Trot
TTITLE30=Cannon Ball Stomp
TTITLE31=Fuller Blues
TTITLE32=Blue Bell
TTITLE33=Take My Hand, Precious Lord
TTITLE34=Turn My Picture Upside Down
TTITLE35=I'm Knee Deep in Trouble
TTITLE36=A Too Fast Past
TTITLE37=Louisiana Boogie
TTITLE38=So Round, So Firm, So Fully Packed
EXTD=
EXTT0=
EXTT1=
EXTT2=
EXTT3=
EXTT4=
EXTT5=
EXTT6=
EXTT7=
EXTT8=
EXTT9=
EXTT10=
EXTT11=
EXTT12=
EXTT13=
EXTT14=
EXTT15=
EXTT16=
EXTT17=
EXTT18=
EXTT19=
EXTT20=
EXTT21=
EXTT22=
EXTT23=
EXTT24=
EXTT25=
EXTT26=
EXTT27=
EXTT28=
EXTT29=
EXTT30=
EXTT31=
EXTT32=
EXTT33=
EXTT34=
EXTT35=
EXTT36=
EXTT37=
EXTT38=
PLAYORDER=
